<svg height="487pt" viewBox="0 -10 487.744 487" width="487pt" xmlns="http://www.w3.org/2000/svg"><path d="m176 160.371094h62c4.417969 0 8-3.582032 8-8 0-4.417969-3.582031-8-8-8h-62c-4.417969 0-8 3.582031-8 8 0 4.417968 3.582031 8 8 8zm0 0"/><path d="m337.09375 200.328125c-63.921875 0-115.738281 51.816406-115.738281 115.738281-.003907 63.921875 51.8125 115.738282 115.734375 115.742188 63.921875 0 115.738281-51.816406 115.742187-115.738282-.070312-63.890624-51.84375-115.667968-115.738281-115.742187zm0 215.476563c-55.085938 0-99.742188-44.652344-99.738281-99.738282 0-55.085937 44.65625-99.738281 99.742187-99.738281 55.082032 0 99.738282 44.660156 99.734375 99.742187-.066406 55.058594-44.683593 99.671876-99.738281 99.734376zm0 0"/><path d="m379.023438 317.371094h-40.023438v-55.210938c0-4.417968-3.582031-8-8-8s-8 3.582032-8 8v62.894532c.023438 4.5 3.601562 8.171874 8.101562 8.316406h47.917969c4.417969 0 8-3.582032 8-8 0-4.417969-3.582031-8-8-8zm0 0"/><path d="m414 186.578125v-89.980469c0-21.980468-16.980469-40.226562-38.148438-40.226562h-82.851562v-16.597656c0-21.984376-17.539062-39.402344-38.707031-39.402344h-94.207031c-21.167969 0-38.085938 17.417968-38.085938 39.402344v16.597656h-83.476562c-21.167969 0-38.523438 18.246094-38.523438 40.226562v215.453125c0 21.980469 17.355469 40.320313 38.523438 40.320313h152.117187c16.128906 65 75.667969 114.695312 146.453125 114.695312 83.136719 0 150.648438-67.75 150.648438-150.886718 0-54.960938-29.742188-103.253907-73.742188-129.601563zm-276-146.804687c0-13.160157 9.738281-23.402344 22.085938-23.402344h94.207031c12.347656 0 22.707031 10.242187 22.707031 23.402344v16.597656h-139zm-122 56.824218c0-13.160156 10.179688-24.226562 22.523438-24.226562h337.328124c12.347657 0 22.148438 11.066406 22.148438 24.226562v81.675782c-19.167969-8.699219-39.980469-13.175782-61.027344-13.136719-49.167968-.089844-95.261718 23.90625-123.386718 64.234375h-175.0625c-12.34375 0-22.523438-10.378906-22.523438-23.539063zm22.523438 239.773438c-12.34375 0-22.523438-11.160156-22.523438-24.320313v-73.867187c6 4.722656 14.175781 7.1875 22.523438 7.1875h165.265624c-11.5 21.8125-17.496093 46.105468-17.464843 70.761718.015625 6.765626.453125 13.527344 1.308593 20.238282zm298.570312 114.464844c-74.3125 0-134.769531-60.457032-134.769531-134.769532s60.457031-134.769531 134.769531-134.769531 134.769531 60.457031 134.769531 134.769531-60.457031 134.769532-134.769531 134.769532zm0 0"/></svg>